<svg width="19" height="20" viewBox="0 0 19 20" fill="none" xmlns="http://www.w3.org/2000/svg">
<path d="M9.20998 5.7128L8.44555 6.18782C8.60977 6.45209 8.89884 6.6128 9.20999 6.6128C9.52113 6.6128 9.8102 6.45209 9.97441 6.18781L9.20998 5.7128ZM13.3196 5.07708C12.8722 5.29358 12.685 5.8318 12.9015 6.27923C13.118 6.72666 13.6562 6.91386 14.1036 6.69737L13.3196 5.07708ZM4.31629 6.69738C4.76372 6.91386 5.30194 6.72664 5.51842 6.2792C5.7349 5.83176 5.54768 5.29355 5.10024 5.07707L4.31629 6.69738ZM4.80783 19.6602C6.12374 19.7556 7.57662 19.8 9.20998 19.8V18C7.6079 18 6.19997 17.9564 4.93804 17.8649L4.80783 19.6602ZM9.20998 19.8C10.8433 19.8 12.2962 19.7556 13.6121 19.6602L13.4819 17.8649C12.22 17.9564 10.8121 18 9.20998 18V19.8ZM13.6121 19.6602C15.9896 19.4878 17.8387 17.6035 18.03 15.2479L16.2359 15.1022C16.1148 16.5931 14.9537 17.7582 13.4819 17.8649L13.6121 19.6602ZM18.03 15.2479C18.1075 14.2932 18.1519 13.3182 18.1519 12.3203H16.3519C16.3519 13.2647 16.3099 14.1909 16.2359 15.1022L18.03 15.2479ZM18.1519 12.3203C18.1519 11.3223 18.1075 10.3474 18.03 9.39276L16.2359 9.53848C16.3099 10.4497 16.3519 11.3758 16.3519 12.3203H18.1519ZM18.03 9.39276C17.8387 7.03712 15.9896 5.15289 13.6121 4.98047L13.4819 6.77575C14.9537 6.88249 16.1148 8.04758 16.2359 9.53848L18.03 9.39276ZM13.6121 4.98047C12.2962 4.88501 10.8433 4.84069 9.20998 4.84069V6.64069C10.8121 6.64069 12.22 6.68421 13.4819 6.77575L13.6121 4.98047ZM9.20998 4.84069C7.57664 4.84069 6.12375 4.88501 4.80782 4.98047L4.93804 6.77575C6.19995 6.68421 7.60787 6.64069 9.20998 6.64069V4.84069ZM4.80782 4.98047C2.4304 5.15289 0.581327 7.03713 0.389985 9.39276L2.18408 9.53849C2.30518 8.04758 3.46629 6.88249 4.93804 6.77575L4.80782 4.98047ZM0.389985 9.39276C0.31246 10.3474 0.268066 11.3223 0.268066 12.3203H2.06807C2.06807 11.3758 2.11008 10.4497 2.18408 9.53849L0.389985 9.39276ZM0.268066 12.3203C0.268066 13.3182 0.312459 14.2932 0.389999 15.2479L2.18409 15.1022C2.11008 14.1909 2.06807 13.2647 2.06807 12.3203H0.268066ZM0.389999 15.2479C0.581324 17.6035 2.4304 19.4878 4.80783 19.6602L4.93804 17.8649C3.4663 17.7582 2.30518 16.5931 2.18409 15.1022L0.389999 15.2479ZM1.16807 11.7579H17.2519V9.9579H1.16807V11.7579ZM10.11 18.9V5.74069H8.30998V18.9H10.11ZM9.97441 6.18781L12.2569 2.51463L10.728 1.56461L8.44554 5.23779L9.97441 6.18781ZM12.2569 2.51463C12.8726 1.52368 14.3458 1.57348 14.8929 2.60075L16.4816 1.75458C15.2815 -0.498645 12.0748 -0.602861 10.728 1.56461L12.2569 2.51463ZM14.8929 2.60075C15.2887 3.34378 14.9892 4.26927 14.2177 4.64251L15.0017 6.26282C16.6849 5.44845 17.3616 3.40677 16.4816 1.75458L14.8929 2.60075ZM14.2177 4.64251L13.3196 5.07708L14.1036 6.69737L15.0017 6.26282L14.2177 4.64251ZM9.97441 5.23778L7.69191 1.5646L6.16304 2.51463L8.44555 6.18782L9.97441 5.23778ZM7.69191 1.5646C6.34509 -0.602865 3.13831 -0.498653 1.93822 1.75459L3.52693 2.60075C4.07405 1.57349 5.54728 1.52368 6.16304 2.51463L7.69191 1.5646ZM1.93822 1.75459C1.05825 3.40677 1.73499 5.44844 3.41812 6.26282L4.2021 4.64252C3.43071 4.26928 3.13118 3.34379 3.52693 2.60075L1.93822 1.75459ZM3.41812 6.26282L4.31629 6.69738L5.10024 5.07707L4.2021 4.64252L3.41812 6.26282Z" fill="#FFDAE8"/>
</svg>
