<svg width="76" height="40" viewBox="0 0 76 40" fill="none" xmlns="http://www.w3.org/2000/svg">
<rect width="76" height="40" rx="20" fill="#E5DDE2"/>
<path d="M31 20C31 19.809 31.0754 19.6406 31.2262 19.4949L36.2396 14.4965C36.3854 14.3558 36.5487 14.2854 36.7297 14.2854C36.9156 14.2854 37.0714 14.3482 37.1971 14.4739C37.3227 14.5945 37.3856 14.7478 37.3856 14.9338C37.3856 15.0242 37.3705 15.1097 37.3403 15.1901C37.3102 15.2755 37.2649 15.3484 37.2046 15.4087L35.5159 17.1276L32.5229 19.8492L32.3721 19.4798L34.7997 19.329H44.3366C44.5326 19.329 44.6934 19.3919 44.8191 19.5175C44.9397 19.6432 45 19.804 45 20C45 20.196 44.9397 20.3569 44.8191 20.4825C44.6934 20.6082 44.5326 20.671 44.3366 20.671H34.7997L32.3721 20.5202L32.5229 20.1432L35.5159 22.8724L37.2046 24.5913C37.2649 24.6516 37.3102 24.722 37.3403 24.8024C37.3705 24.8878 37.3856 24.9758 37.3856 25.0662C37.3856 25.2522 37.3227 25.4055 37.1971 25.5261C37.0714 25.6518 36.9156 25.7146 36.7297 25.7146C36.6392 25.7146 36.5538 25.697 36.4733 25.6618C36.3879 25.6266 36.305 25.5688 36.2246 25.4884L31.2262 20.5051C31.0754 20.3594 31 20.191 31 20Z" fill="#FD0786"/>
</svg>
