<svg width="50" height="50" viewBox="0 0 50 50" fill="none" xmlns="http://www.w3.org/2000/svg">
<path d="M30.3713 17.6628C28.7936 17.6628 27.216 18.2498 26.0065 19.4771L25.0073 20.4909L24.0081 19.4771C22.7986 18.2498 21.221 17.6628 19.6433 17.6628C18.0131 17.6628 16.3829 18.3031 15.1733 19.5838C12.8595 22.0918 12.9647 26.0406 15.3837 28.4419L24.3237 37.5134C24.7444 37.9403 25.3754 37.9403 25.7961 37.5134L34.8413 28.3351C37.2603 25.8805 37.2603 21.8784 34.8413 19.4771C33.5792 18.2498 32.0015 17.6628 30.3713 17.6628Z" fill="#FD0786"/>
<path d="M25.0073 10.6724C25.7961 10.6724 26.4272 10.032 26.4272 9.23159V1.44078C26.4272 0.640348 25.7961 0 25.0073 0C24.2185 0 23.5874 0.640348 23.5874 1.44078V9.23159C23.5874 10.032 24.2185 10.6724 25.0073 10.6724Z" fill="#FF98BF"/>
<path d="M13.4906 14.0343C13.7536 14.3545 14.1743 14.5679 14.595 14.5679C14.9105 14.5679 15.2261 14.4612 15.489 14.2478C16.0675 13.7142 16.1726 12.807 15.6468 12.22L10.7035 6.24351C10.1776 5.65653 9.28361 5.54978 8.70514 6.0834C8.12668 6.61702 8.02151 7.52419 8.54739 8.11117L13.4906 14.0343Z" fill="#FF98BF"/>
<path d="M9.02052 24.2795C9.70417 24.2795 10.2827 23.7993 10.3878 23.1056C10.5456 22.3052 10.0197 21.5581 9.23089 21.4514L1.6582 20.1173C0.869384 19.9572 0.133164 20.4908 0.0279884 21.2913C-0.129776 22.0917 0.396111 22.8388 1.18493 22.9455L8.75758 24.2795C8.86276 24.2795 8.91535 24.2795 9.02052 24.2795Z" fill="#FF98BF"/>
<path d="M10.2297 32.7109L3.55106 36.6063C2.86742 36.9798 2.65707 37.887 3.02518 38.5807C3.28812 39.0609 3.76141 39.2744 4.2347 39.2744C4.49764 39.2744 4.70799 39.221 4.91834 39.0609L11.597 35.1655C12.2807 34.792 12.491 33.8848 12.1229 33.1911C11.8074 32.5508 10.9134 32.284 10.2297 32.7109Z" fill="#FF98BF"/>
<path d="M19.9592 39.8612C19.223 39.5944 18.4342 39.9679 18.1187 40.715L15.4893 48.0256C15.2263 48.7726 15.5944 49.573 16.3307 49.8932C16.4884 49.9466 16.6462 50 16.804 50C17.3824 50 17.9083 49.6264 18.1187 49.0394L20.7481 41.7289C21.0636 40.9285 20.6955 40.128 19.9592 39.8612Z" fill="#FF98BF"/>
<path d="M31.8963 40.715C31.6334 39.9679 30.792 39.5944 30.0558 39.8612C29.3195 40.128 28.9514 40.9818 29.2144 41.7289L31.8438 49.0394C32.0541 49.6264 32.58 50 33.1585 50C33.3162 50 33.474 49.9466 33.6318 49.8932C34.368 49.6264 34.7361 48.7726 34.4732 48.0256L31.8963 40.715Z" fill="#FF98BF"/>
<path d="M46.4106 36.6064L39.7319 32.711C39.0483 32.3374 38.2069 32.5509 37.7862 33.2446C37.4181 33.9383 37.6284 34.7921 38.312 35.219L44.9907 39.1144C45.2011 39.2211 45.464 39.3278 45.6744 39.3278C46.1477 39.3278 46.6209 39.061 46.8839 38.6341C47.3572 37.887 47.0943 36.9799 46.4106 36.6064Z" fill="#FF98BF"/>
<path d="M49.9867 21.238C49.8289 20.4376 49.0927 19.9573 48.3565 20.064L40.7838 21.3981C39.995 21.5581 39.5217 22.3052 39.6269 23.0523C39.732 23.746 40.3631 24.2262 40.9942 24.2262C41.0993 24.2262 41.1519 24.2262 41.2571 24.2262L48.8298 22.8922C49.566 22.7855 50.0919 22.0384 49.9867 21.238Z" fill="#FF98BF"/>
<path d="M35.4195 14.5145C35.8402 14.5145 36.2083 14.3544 36.5238 13.9809L41.4671 8.00434C41.993 7.41736 41.8878 6.51022 41.3093 5.9766C40.7309 5.44298 39.8369 5.5497 39.311 6.13668L34.3677 12.1132C33.8418 12.7002 33.947 13.6073 34.5255 14.141C34.7884 14.4078 35.1039 14.5145 35.4195 14.5145Z" fill="#FF98BF"/>
</svg>
