<svg width="456" height="60" viewBox="0 0 456 60" fill="none" xmlns="http://www.w3.org/2000/svg">
<rect x="-40" width="471" height="60" fill="#FD0786"/>
<path d="M444.75 0L444.295 1.66667C443.805 3.33333 442.946 6.66667 441.081 10C439.25 13.3333 436.5 16.6667 437.42 20C438.305 23.3333 442.946 26.6667 447.045 30C451.196 33.3333 454.805 36.6667 455.751 40C456.696 43.3333 454.805 46.6667 452.545 50C450.251 53.3333 447.501 56.6667 446.125 58.3333L444.75 60H431V58.3333C431 56.6667 431 53.3333 431 50C431 46.6667 431 43.3333 431 40C431 36.6667 431 33.3333 431 30C431 26.6667 431 23.3333 431 20C431 16.6667 431 13.3333 431 10C431 6.66667 431 3.33333 431 1.66667V0L444.75 0Z" fill="#FD0786"/>
</svg>
