<svg width="76" height="40" viewBox="0 0 76 40" fill="none" xmlns="http://www.w3.org/2000/svg">
<rect width="76" height="40" rx="20" transform="matrix(-1 0 0 1 76 0)" fill="#E5DDE2"/>
<path d="M45 20C45 19.809 44.9246 19.6406 44.7738 19.4949L39.7604 14.4965C39.6146 14.3558 39.4513 14.2854 39.2703 14.2854C39.0844 14.2854 38.9286 14.3482 38.8029 14.4739C38.6773 14.5945 38.6144 14.7478 38.6144 14.9338C38.6144 15.0242 38.6295 15.1097 38.6597 15.1901C38.6898 15.2755 38.7351 15.3484 38.7954 15.4087L40.4841 17.1276L43.4771 19.8492L43.6279 19.4798L41.2003 19.329H31.6634C31.4674 19.329 31.3066 19.3919 31.1809 19.5175C31.0603 19.6432 31 19.804 31 20C31 20.196 31.0603 20.3569 31.1809 20.4825C31.3066 20.6082 31.4674 20.671 31.6634 20.671H41.2003L43.6279 20.5202L43.4771 20.1432L40.4841 22.8724L38.7954 24.5913C38.7351 24.6516 38.6898 24.722 38.6597 24.8024C38.6295 24.8878 38.6144 24.9758 38.6144 25.0662C38.6144 25.2522 38.6773 25.4055 38.8029 25.5261C38.9286 25.6518 39.0844 25.7146 39.2703 25.7146C39.3608 25.7146 39.4462 25.697 39.5267 25.6618C39.6121 25.6266 39.695 25.5688 39.7754 25.4884L44.7738 20.5051C44.9246 20.3594 45 20.191 45 20Z" fill="#FD0786"/>
</svg>
