<svg width="50" height="50" viewBox="0 0 50 50" fill="none" xmlns="http://www.w3.org/2000/svg">
<path d="M20.1579 17.1053H9.52632C8.10526 17.1053 7 18.2631 7 19.6316V47.4737C7 48.8947 8.15789 50 9.52632 50H20.1579C21.5789 50 22.6842 48.8421 22.6842 47.4737V19.6316C22.6842 18.2105 21.5789 17.1053 20.1579 17.1053Z" fill="#FD0786"/>
<path d="M19.5788 11.8421H21.263C21.5788 11.8421 21.842 11.5789 21.842 11.2631V10.1579C21.842 9.84209 21.5788 9.57893 21.263 9.57893H19.5788V8.63156C19.5788 7.84209 18.9472 7.21051 18.1578 7.21051H11.4735C10.6841 7.21051 10.0525 7.84209 10.0525 8.63156V14.2631H19.5788V11.8421Z" fill="#FD0786"/>
<path d="M27.1576 13.1053C28.4947 13.1053 29.5787 12.0213 29.5787 10.6842C29.5787 9.34709 28.4947 8.26315 27.1576 8.26315C25.8205 8.26315 24.7366 9.34709 24.7366 10.6842C24.7366 12.0213 25.8205 13.1053 27.1576 13.1053Z" fill="#FF70AF"/>
<path d="M33.4738 17.2106C34.8109 17.2106 35.8948 16.1266 35.8948 14.7895C35.8948 13.4524 34.8109 12.3685 33.4738 12.3685C32.1367 12.3685 31.0527 13.4524 31.0527 14.7895C31.0527 16.1266 32.1367 17.2106 33.4738 17.2106Z" fill="#FF72AF"/>
<path d="M33.4738 8.94742C34.8109 8.94742 35.8948 7.86348 35.8948 6.52637C35.8948 5.18926 34.8109 4.10532 33.4738 4.10532C32.1367 4.10532 31.0527 5.18926 31.0527 6.52637C31.0527 7.86348 32.1367 8.94742 33.4738 8.94742Z" fill="#FF98BF"/>
<path d="M39.7895 21.3684C41.1266 21.3684 42.2105 20.2845 42.2105 18.9474C42.2105 17.6102 41.1266 16.5263 39.7895 16.5263C38.4523 16.5263 37.3684 17.6102 37.3684 18.9474C37.3684 20.2845 38.4523 21.3684 39.7895 21.3684Z" fill="#FF98BF"/>
<path d="M39.7895 13.1053C41.1266 13.1053 42.2105 12.0213 42.2105 10.6842C42.2105 9.34709 41.1266 8.26315 39.7895 8.26315C38.4523 8.26315 37.3684 9.34709 37.3684 10.6842C37.3684 12.0213 38.4523 13.1053 39.7895 13.1053Z" fill="#FF65AB"/>
<path d="M39.7895 4.84211C41.1266 4.84211 42.2105 3.75816 42.2105 2.42105C42.2105 1.08394 41.1266 0 39.7895 0C38.4523 0 37.3684 1.08394 37.3684 2.42105C37.3684 3.75816 38.4523 4.84211 39.7895 4.84211Z" fill="#FF7BB1"/>
</svg>
