<svg width="23" height="19" viewBox="0 0 23 19" fill="none" xmlns="http://www.w3.org/2000/svg">
<g filter="url(#filter0_d_7_2985)">
<path d="M14.84 4.39262C14.2877 4.39262 13.84 4.84034 13.84 5.39262C13.84 5.94491 14.2877 6.39262 14.84 6.39262V4.39262ZM17.7923 13.773C17.2401 13.773 16.7923 14.2207 16.7923 14.773C16.7923 15.3253 17.2401 15.773 17.7923 15.773V13.773ZM14.84 6.39262H18.1412V4.39262H14.84V6.39262ZM18.1412 6.39262C18.7053 6.39262 19.2463 6.61671 19.645 7.01549L21.0593 5.60141C20.2854 4.82738 19.2357 4.39262 18.1412 4.39262V6.39262ZM19.645 7.01549C20.0438 7.41431 20.268 7.95535 20.268 8.51942H22.268C22.268 7.42494 21.8333 6.37535 21.0593 5.60141L19.645 7.01549ZM20.268 8.51942V13.1358H22.268V8.51942H20.268ZM20.268 13.1358C20.268 13.4877 19.9827 13.773 19.6308 13.773V15.773C21.0873 15.773 22.268 14.5923 22.268 13.1358H20.268ZM19.6308 13.773H17.7923V15.773H19.6308V13.773ZM8.02017 16.1349C9.54211 16.1349 11.0202 15.9825 12.402 15.8321L12.1855 13.8438C10.8002 13.9946 9.42082 14.1349 8.02017 14.1349V16.1349ZM2.86032 13.7211C2.60294 13.638 2.41118 13.4095 2.37911 13.1379L0.392908 13.3725C0.518601 14.4368 1.25996 15.306 2.24572 15.6244L2.86032 13.7211ZM2.37911 13.1379C2.19682 11.5944 2 10.0745 2 8.51742H0C0 10.2181 0.215453 11.8699 0.392908 13.3725L2.37911 13.1379ZM2 8.51742C2 6.96034 2.19682 5.44042 2.37911 3.89695L0.392908 3.66238C0.215453 5.16499 0 6.81672 0 8.51742H2ZM2.37911 3.89695C2.41701 3.57599 2.67673 3.31865 2.99954 3.28404L2.78634 1.29544C1.53716 1.42936 0.540408 2.41325 0.392908 3.66238L2.37911 3.89695ZM2.99954 3.28404C4.67157 3.10477 6.32308 2.8999 8.02017 2.8999V0.899902C6.18948 0.899902 4.40807 1.12156 2.78634 1.29544L2.99954 3.28404ZM8.02017 2.8999C9.71727 2.8999 11.3688 3.10477 13.0408 3.28404L13.254 1.29544C11.6323 1.12156 9.85087 0.899902 8.02017 0.899902V2.8999ZM13.0408 3.28404C13.3636 3.31865 13.6233 3.57598 13.6612 3.89694L15.6474 3.6624C15.4999 2.41327 14.5032 1.42936 13.254 1.29544L13.0408 3.28404ZM13.6612 3.89694C13.8435 5.44041 14.0403 6.96034 14.0403 8.51742H16.0403C16.0403 6.81672 15.8249 5.16499 15.6474 3.6624L13.6612 3.89694ZM14.0403 8.51742C14.0403 9.77577 13.9111 11.0188 13.7642 12.27L15.7506 12.5032C15.8982 11.2457 16.0403 9.90222 16.0403 8.51742H14.0403ZM15.0406 16.8999C14.0662 16.8999 13.2763 16.11 13.2763 15.1356H11.2763C11.2763 17.2146 12.9616 18.8999 15.0406 18.8999V16.8999ZM13.2763 15.1356C13.2763 14.1612 14.0662 13.3713 15.0406 13.3713V11.3713C12.9616 11.3713 11.2763 13.0566 11.2763 15.1356H13.2763ZM15.0406 13.3713C16.0149 13.3713 16.8048 14.1612 16.8048 15.1356H18.8048C18.8048 13.0567 17.1195 11.3713 15.0406 11.3713V13.3713ZM16.8048 15.1356C16.8048 16.11 16.015 16.8999 15.0406 16.8999V18.8999C17.1195 18.8999 18.8048 17.2146 18.8048 15.1356H16.8048ZM5.27143 16.8999C4.29705 16.8999 3.50716 16.11 3.50716 15.1356H1.50716C1.50716 17.2146 3.19249 18.8999 5.27143 18.8999V16.8999ZM3.50716 15.1356C3.50716 14.1612 4.29706 13.3713 5.27143 13.3713V11.3713C3.19248 11.3713 1.50716 13.0566 1.50716 15.1356H3.50716ZM5.27143 13.3713C6.24581 13.3713 7.03571 14.1612 7.03571 15.1356H9.03571C9.03571 13.0566 7.35039 11.3713 5.27143 11.3713V13.3713ZM7.03571 15.1356C7.03571 16.11 6.24582 16.8999 5.27143 16.8999V18.8999C7.35037 18.8999 9.03571 17.2146 9.03571 15.1356H7.03571Z" fill="#FD0786"/>
</g>
<defs>
<filter id="filter0_d_7_2985" x="0" y="0.899902" width="22.2681" height="18" filterUnits="userSpaceOnUse" color-interpolation-filters="sRGB">
<feFlood flood-opacity="0" result="BackgroundImageFix"/>
<feColorMatrix in="SourceAlpha" type="matrix" values="0 0 0 0 0 0 0 0 0 0 0 0 0 0 0 0 0 0 127 0" result="hardAlpha"/>
<feOffset/>
<feComposite in2="hardAlpha" operator="out"/>
<feColorMatrix type="matrix" values="0 0 0 0 0 0 0 0 0 0.196078 0 0 0 0 0.627451 0 0 0 1 0"/>
<feBlend mode="normal" in2="BackgroundImageFix" result="effect1_dropShadow_7_2985"/>
<feBlend mode="normal" in="SourceGraphic" in2="effect1_dropShadow_7_2985" result="shape"/>
</filter>
</defs>
</svg>
