<svg width="50" height="50" viewBox="0 0 50 50" fill="none" xmlns="http://www.w3.org/2000/svg">
<path d="M44.1655 4.56635C41.644 2.22029 38.5972 1.32655 35.3928 1.941C32.8188 2.44373 30.3498 2.6113 27.9859 2.77888C23.5208 3.11403 19.5809 3.39332 16.6392 5.5718L17.3746 5.79524C18.793 6.24211 19.7911 7.58271 19.7911 9.14675C19.7911 10.7108 18.8455 12.1073 17.3746 12.4983L13.0671 13.783L11.8589 18.3634C11.4911 19.7599 10.388 20.7653 9.07472 20.877C8.86459 23.279 9.02219 25.8485 9.49497 28.4179C10.7032 34.9534 13.4348 39.2545 17.3221 40.9303C18.4253 41.3771 19.6335 41.6006 20.8942 41.6006C22.26 41.6006 23.6784 41.3213 25.2018 40.7627C22.9955 39.1428 20.8942 37.3553 20.5265 37.0202C19.6335 36.3499 19.0556 35.2885 18.898 34.1155C18.7404 32.9425 19.0031 31.7136 19.7385 30.764C20.5265 29.7027 21.6297 29.1441 22.8904 29.1441C23.1531 29.1441 23.4157 29.1441 23.6784 29.2C22.6803 27.3566 20.9467 24.1727 20.2113 22.7762C19.686 21.8266 19.5284 20.6536 19.7911 19.5923C20.0537 18.4751 20.7366 17.5814 21.6822 17.0228C22.26 16.6877 22.9429 16.4642 23.6258 16.4642C23.6784 14.8443 24.5714 13.3361 26.0423 12.6658C26.515 12.4424 27.0404 12.3307 27.5657 12.3307C28.4587 12.3307 29.3517 12.6658 30.0346 13.2244C30.5074 12.6658 31.0853 12.2748 31.7682 12.0514C32.1359 11.9397 32.5561 11.828 32.9764 11.828C34.1321 11.828 35.2352 12.3865 35.9706 13.2803C36.3384 13.001 36.7586 12.8334 37.1789 12.7217C37.494 12.61 37.8092 12.61 38.1244 12.61C39.963 12.61 41.5389 13.9506 42.0117 15.9056C42.0117 16.0174 44.1655 26.0719 44.9535 29.8144L45.006 30.0937C47.6325 28.0269 49.8914 24.843 49.9964 20.3185C50.1015 14.1182 47.8427 7.97372 44.1655 4.56635Z" fill="#FF98BF"/>
<path d="M40.3309 39.2545C43.6404 37.9698 43.2202 34.1714 42.4847 30.4847C41.7493 26.7422 39.543 16.576 39.543 16.576C39.3329 15.6822 38.4924 15.1236 37.6519 15.3471C36.8114 15.5705 36.286 16.4642 36.4962 17.358L38.1246 24.6755C38.1772 24.9547 38.0196 25.1782 37.8095 25.2899H37.7569C37.4943 25.4016 37.2316 25.234 37.1265 24.9547L34.3949 15.6822C34.1323 14.7885 33.2392 14.2858 32.3987 14.5651C31.5582 14.8443 31.0855 15.7939 31.3481 16.6877L34.0797 25.9602C34.1848 26.2395 34.0272 26.5188 33.7646 26.6305C33.5544 26.6864 33.2918 26.5746 33.1867 26.3512L28.9317 15.9615C28.564 15.1236 27.6709 14.7326 26.883 15.1236C26.095 15.5147 25.7273 16.4642 26.095 17.3021L30.1924 27.2449C30.2975 27.5242 30.1924 27.8594 29.8773 27.9711L29.7197 28.027C29.5095 28.0828 29.2469 28.027 29.1418 27.8035L24.9393 19.9833C24.5191 19.2013 23.5735 18.922 22.7856 19.3689C22.0501 19.8158 21.7875 20.8771 22.2077 21.6591C22.2077 21.6591 25.7273 27.9711 26.4102 29.3676C27.0931 30.764 27.4608 31.5461 27.9336 32.8308C28.1963 33.557 27.776 34.2273 26.883 33.7804C26.883 33.7804 25.0444 32.6074 24.0463 32.1046C23.0482 31.6019 22.1552 31.6019 21.5773 32.4398C20.947 33.2777 21.1571 34.5066 21.9451 35.121C21.9451 35.121 27.0406 39.4221 29.8247 40.9861C31.0329 41.6564 32.5563 42.2709 33.7646 41.824C36.3386 40.7627 37.8095 40.2041 40.3309 39.2545Z" fill="#FD0786"/>
<path d="M44.2181 41.2095C44.0079 40.5951 43.3776 40.3158 42.7997 40.5392L33.6068 44.1142C33.0289 44.3376 32.7663 45.0079 32.9764 45.6224L34.2372 49.2532C34.4473 49.8676 35.0777 50.1469 35.6555 49.9235L44.8484 46.3485C45.4263 46.1251 45.6889 45.4548 45.4788 44.8403L44.2181 41.2095Z" fill="#FD0786"/>
<path d="M9.54753 17.7491L10.9659 12.3308C11.0709 11.9956 11.2811 11.7722 11.5962 11.6605L16.6918 10.1523C17.5848 9.873 17.5848 8.58825 16.6918 8.30896L11.5962 6.80078C11.2811 6.68906 11.0709 6.46563 10.9659 6.13048L9.54753 0.712197C9.28487 -0.237399 8.07666 -0.237399 7.814 0.712197L6.39566 6.13048C6.2906 6.46563 6.08048 6.68906 5.76529 6.80078L0.669772 8.30896C-0.223257 8.58825 -0.223257 9.873 0.669772 10.1523L5.76529 11.6605C6.08048 11.7722 6.2906 11.9956 6.39566 12.3308L7.814 17.7491C8.07666 18.6428 9.28487 18.6428 9.54753 17.7491Z" fill="#FD0786"/>
</svg>
